M48
; DRILL file {KiCad (5.1.12)-1} date 02/25/23 13:30:45
; FORMAT={-:-/ absolute / metric / decimal}
; #@! TF.CreationDate,2023-02-25T13:30:45+03:00
; #@! TF.GenerationSoftware,Kicad,Pcbnew,(5.1.12)-1
; #@! TF.FileFunction,Plated,1,2,PTH
FMAT,2
METRIC
T1C0.400
T2C0.800
T3C1.000
T4C3.200
%
G90
G05
T1
X165.75Y-69.75
X168.125Y-71.625
X168.25Y-75.0
X170.0Y-78.25
X171.42Y-57.94
X171.51Y-56.03
X172.0Y-65.5
X172.25Y-76.5
X172.51Y-42.7
X173.75Y-60.25
X173.875Y-58.875
X175.0Y-76.25
X175.3Y-43.8
X175.87Y-52.65
X176.25Y-76.5
X177.4Y-48.52
X177.43Y-43.8
X177.75Y-64.5
X178.0Y-78.5
X179.0Y-64.5
X179.64Y-43.82
X179.69Y-48.58
X179.75Y-65.75
X183.412Y-68.912
X183.412Y-70.837
X183.5Y-74.75
X184.47Y-51.34
X185.0Y-75.75
X185.03Y-52.47
X187.3Y-56.31
X187.69Y-63.32
X188.04Y-54.94
X188.285Y-65.235
X188.42Y-56.3
X189.165Y-63.115
X189.5Y-85.25
X192.5Y-50.22
X192.75Y-86.75
T2
X167.28Y-54.69
X167.28Y-59.57
T3
X172.36Y-40.39
X174.18Y-82.03
X174.9Y-40.39
X175.565Y-84.87
X176.95Y-82.03
X177.44Y-40.39
X178.335Y-84.87
X179.72Y-82.03
X179.98Y-40.39
X181.105Y-84.87
X182.49Y-82.03
X183.875Y-84.87
X185.26Y-82.03
X192.81Y-67.0
X192.81Y-69.54
X192.81Y-72.08
X192.81Y-74.62
T4
X167.22Y-82.33
X192.22Y-82.33
T0
M30
